<?xml version="1.0" ?><svg id="Layer_1" style="enable-background:new 0 0 48 48;" version="1.1" viewBox="0 0 48 48" xml:space="preserve" xmlns="http://www.w3.org/2000/svg" xmlns:xlink="http://www.w3.org/1999/xlink"><style type="text/css">
	.st0{fill:#F9B17B;}
	.st1{fill:#F9AE7B;}
	.st2{opacity:0.5;}
	.st3{fill:#F69164;}
	.st4{fill:#603813;}
	.st5{fill:#3B2314;}
	.st6{fill:#FFFFFF;}
	.st7{fill:#009345;}
	.st8{fill:#F8B677;}
	.st9{fill:#8A5D3B;}
	.st10{fill:#A87C4F;}
	.st11{fill:#321B0F;}
	.st12{fill:#404041;}
	.st13{fill:#929497;}
	.st14{fill:#754C28;}
	.st15{fill:#009687;}
	.st16{fill:#C3996B;}
	.st17{fill:#FAAF40;}
	.st18{fill:#E89E3C;}
	.st19{fill:#D0D2D3;}
	.st20{fill:#58595B;}
	.st21{fill:#EAA476;}
	.st22{fill:#E29C75;}
	.st23{fill:#D5855B;}
	.st24{fill:#F05A28;}
	.st25{fill:#F6921E;}
	.st26{fill:#783340;}
	.st27{fill:#843A42;}
	.st28{fill:#6D6E70;}
	.st29{fill:#EE4036;}
	.st30{fill:#FDED16;}
	.st31{fill:#231F20;}
	.st32{fill:#885A3D;}
	.st33{fill:#5C3418;}
	.st34{fill:#C49291;}
	.st35{fill:#262261;}
	.st36{fill:#E6E7E8;}
</style><g><g><g><g><path class="st21" d="M35.55,23.47H12.17c-1.29,0-2.34-1.05-2.34-2.34v-0.55c0-1.29,1.05-2.34,2.34-2.34h23.38      c1.29,0,2.34,1.05,2.34,2.34v0.55C37.89,22.42,36.84,23.47,35.55,23.47z"/></g><g><rect class="st22" height="5.39" width="5.94" x="21" y="30.93"/></g><g class="st2"><path class="st23" d="M24.53,26.37c-0.1-0.03-0.2-0.06-0.3-0.08c-0.65-0.02-1.3,0-1.95,0.05c-0.43,0.08-0.86,0.17-1.28,0.26      v6.58c0.88,0.26,1.6,0.36,2,0.41c0.38,0.05,0.81,0.08,1.3,0.06c0.42-0.01,0.81-0.05,1.14-0.11c0.3-0.04,0.85-0.13,1.53-0.34      c0-0.04,0-0.08,0-0.12v-6.34C26.13,26.72,25.31,26.6,24.53,26.37z"/></g><g><path class="st21" d="M25.4,32.09c-0.34,0.05-0.74,0.1-1.17,0.11c-0.5,0.01-0.94-0.02-1.33-0.06c-1.04-0.11-4.22-0.59-6.72-3.17      c-0.48-0.49-1.74-1.82-2.41-3.98c-0.28-0.91-0.44-1.88-0.44-2.89v-7.47c0-5.36,4.35-9.71,9.71-9.71h1.62      c5.36,0,9.71,4.35,9.71,9.71v7.47c-0.02,0.8-0.21,4.09-2.84,6.87C29.15,31.47,26.26,31.97,25.4,32.09z"/></g></g><g><path class="st9" d="M24.49,25.31c-0.02,0-0.03,0-0.05,0c-1.69-0.35-2.46-0.74-2.48-1.26c-0.02-0.35,0.29-0.55,0.62-0.77     c0.29-0.19,0.64-0.42,0.9-0.8c0.4-0.62,0.45-1.48,0.14-2.58c-0.04-0.13,0.04-0.26,0.16-0.29c0.12-0.04,0.26,0.04,0.29,0.16     c0.35,1.23,0.28,2.23-0.2,2.97c-0.31,0.46-0.72,0.74-1.03,0.94c-0.18,0.12-0.41,0.27-0.4,0.35c0,0.02,0.04,0.4,2.11,0.82     c0.13,0.03,0.21,0.15,0.18,0.28C24.7,25.23,24.6,25.31,24.49,25.31z"/></g><g><ellipse class="st11" cx="29.6" cy="20.91" rx="1.08" ry="1.69"/></g><g><ellipse class="st11" cx="18.73" cy="20.91" rx="1.08" ry="1.69"/></g><g><path class="st6" d="M25.39,27.41c-0.33,0.06-1.14,0.17-2.15,0c-0.75-0.12-1.36-0.35-1.82-0.57c0.11,0.15,1.14,1.42,2.9,1.4     c1.69-0.02,2.68-1.23,2.8-1.39C26.71,27.06,26.12,27.29,25.39,27.41z"/></g><g><path class="st11" d="M38.13,9.81c-0.29-1.44-2.06-2.23-3.22-2.44c-1.4-0.25-2.32,0.32-3.26-0.31c-0.68-0.45-1.05-1.12-1.05-1.12     c-0.14-0.26-0.19-0.46-0.24-0.55c-1.25-2.44-4.2-2.93-5.08-3.03c-0.06-0.01-0.12-0.01-0.19-0.02c-1.68-0.14-2.59,0.75-4.34,1.59     c-1.91,0.91-2.27,0.54-4.09,1.59c-0.72,0.41-1.27,0.82-1.62,1.1c-0.59,0.62-1.37,1.53-2.12,2.73c-0.87,1.39-1.9,2.96-2.05,5.16     c-0.06,0.96-0.21,3.3,1.3,4.9c0.51,0.54,1.37,1.17,1.72,0.94c0.45-0.29-0.48-1.62-0.52-3.93c-0.02-0.91-0.06-3.2,1.36-4.64     c0.42-0.43,0.72-0.53,1.07-0.9c0.43,1.67,1.55,3.23,3.12,4.05c1.84,0.96,3.85-1.51,7.54-1.04c0.54,0.07,0.86,0.11,1.3,0.26     c2.26,0.78,2.8,2.88,4.48,2.86c0.33,0,0.64-0.08,0.9-0.17c0.02,0.19,0.03,0.4,0.03,0.65c0,0.19,0,0.33-0.02,0.54     c-0.07,0.83-0.27,1.49-0.43,1.92c-0.08,0.17-0.16,0.38-0.08,0.48c0.16,0.17,0.84-0.09,1.31-0.47c0.8-0.64,1.02-1.64,1.21-2.51     c0.17-0.75,0.06-0.75,0.24-1.7c0.07-0.38,0.12-0.62,0.2-0.88c0.08-0.24,0.22-0.58,0.49-0.96c0.2-0.24,0.41-0.49,0.61-0.75     c0.14-0.17,0.27-0.34,0.4-0.52C37.88,11.75,38.31,10.71,38.13,9.81z"/></g><g><path class="st5" d="M31.18,17.16c0.04,0.05,0.08,0.13,0.12,0.22c0.08,0.21,0.13,0.56,0.01,0.67c-0.25,0.23-0.99-0.79-2.16-0.89     c-1.01-0.09-1.58,0.63-1.95,0.32c-0.29-0.24-0.24-0.9,0.06-1.27c0.4-0.5,1.19-0.39,1.86-0.3c0.34,0.04,0.83,0.12,1.33,0.47     C30.82,16.64,31.02,16.95,31.18,17.16z"/></g><g><path class="st5" d="M16.84,17.16c-0.04,0.05-0.08,0.13-0.12,0.22c-0.08,0.21-0.13,0.56-0.01,0.67c0.25,0.23,0.99-0.79,2.16-0.89     c1.01-0.09,1.58,0.63,1.95,0.32c0.29-0.24,0.24-0.9-0.06-1.27c-0.4-0.5-1.19-0.39-1.86-0.3c-0.34,0.04-0.83,0.12-1.33,0.47     C17.2,16.64,17,16.95,16.84,17.16z"/></g></g><g><path class="st24" d="M35.5,38.3c-2.24-0.96-5.95-2.23-10.7-2.4c-4.69-0.17-8.44,0.79-10.74,1.58c-0.74,0.22-2.21,0.78-3.58,2.14    c-0.52,0.52-1.56,1.69-2.13,3.51c-0.25,0.81-0.39,1.66-0.39,2.55v0h32.05v0c-0.01-0.83-0.17-3.89-2.51-6.06    C36.83,38.98,36.12,38.57,35.5,38.3z"/></g><g><path class="st17" d="M28.01,36.18c0.11-0.1,0.18-0.25,0.18-0.41v-0.52c0-0.31-0.25-0.57-0.57-0.57h-7.18    c-0.31,0-0.57,0.25-0.57,0.57v0.52c0,0.1,0.03,0.2,0.08,0.28c-0.43,0.06-0.89,0.13-1.36,0.22c-0.5,0.09-0.97,0.2-1.41,0.31    c0.17,0.26,2.54,3.76,6.93,3.76c4.24-0.01,6.6-3.3,6.8-3.59C30.05,36.54,29.08,36.34,28.01,36.18z"/></g><g><g><path class="st25" d="M29.92,25.82c-2.57,0-4.65-2.09-4.65-4.65s2.09-4.65,4.65-4.65s4.65,2.09,4.65,4.65     S32.49,25.82,29.92,25.82z M29.92,16.98c-2.31,0-4.18,1.88-4.18,4.18c0,2.31,1.88,4.18,4.18,4.18c2.31,0,4.18-1.88,4.18-4.18     C34.1,18.86,32.23,16.98,29.92,16.98z"/></g><g><path class="st25" d="M17.62,25.82c-2.57,0-4.65-2.09-4.65-4.65s2.09-4.65,4.65-4.65s4.65,2.09,4.65,4.65     S20.19,25.82,17.62,25.82z M17.62,16.98c-2.31,0-4.18,1.88-4.18,4.18c0,2.31,1.88,4.18,4.18,4.18c2.31,0,4.18-1.88,4.18-4.18     C21.8,18.86,19.93,16.98,17.62,16.98z"/></g><g><rect class="st25" height="0.47" width="3.55" x="22" y="20.19"/></g></g></g></svg>