<?xml version="1.0" ?><svg data-name="图层 2" id="图层_2" viewBox="0 0 512 512" xmlns="http://www.w3.org/2000/svg"><defs><style>.cls-1{fill:#badddc;}.cls-2{fill:#ffc4b8;}.cls-3{fill:#fe942a;}.cls-4{fill:#b3171a;}.cls-5{fill:#cce2e1;}.cls-6{fill:#dd8c83;}.cls-7{fill:#fff;}.cls-8{fill:#06ccab;}.cls-9{fill:#b3f2d7;}</style></defs><title/><rect class="cls-1" height="42.74" width="126.01" x="193.06" y="329.58"/><path class="cls-2" d="M421.08,436.94a97.92,97.92,0,0,0-96.51-81.35h-19.3A12.55,12.55,0,0,1,292.72,343V326l-36.08,2.85L220.57,326V343A12.56,12.56,0,0,1,208,355.59h-19.3A97.92,97.92,0,0,0,92.2,436.94L90.3,448H423Z"/><path class="cls-3" d="M421.08,436.94A98,98,0,0,0,346.31,358c-20.19,17.53-53.29,29-90.7,29-37.13,0-70-11.26-90.23-28.57A97.92,97.92,0,0,0,92.2,436.94L90.3,448H423Z"/><path d="M135.55,116.87a80.54,80.54,0,1,1,77.78,92c-17.28,29.82-26.66,61.21-29.12,86.79-33.79,1.11-39.63-35.79-39.63-35.79S107.42,273.4,90.3,239.51C138.73,234.88,129.31,160.17,135.55,116.87Z"/><path d="M370.38,187c0,69.18-51.5,134.72-115,134.72s-115-65.54-115-134.72,51.5-115.79,115-115.79S370.38,117.77,370.38,187Z"/><path class="cls-4" d="M200,390.44h0a32.1,32.1,0,0,1-55.48-22c0-.79,0-1.57.1-2.35A97.86,97.86,0,0,0,92.2,436.94L90.3,448h123a152.85,152.85,0,0,0,7-37.21C211.18,405.65,204.1,398.61,200,390.44Z"/><path class="cls-4" d="M313.27,390.44h0a32.1,32.1,0,0,0,55.47-22c0-.79,0-1.57-.1-2.35a97.86,97.86,0,0,1,52.44,70.85L423,448H300a153.32,153.32,0,0,1-7-37.21C302.1,405.65,309.18,398.61,313.27,390.44Z"/><path class="cls-5" d="M196.12,374.32c0-18.43,14.46-34.29,35.24-41.44a30.39,30.39,0,0,0-58,3.63A32.1,32.1,0,1,0,200,390.44,35.79,35.79,0,0,1,196.12,374.32Z"/><path class="cls-5" d="M317.13,374.32c0-18.43-14.46-34.29-35.24-41.44a30.39,30.39,0,0,1,58,3.63,32.1,32.1,0,1,1-26.65,53.93A35.91,35.91,0,0,0,317.13,374.32Z"/><polygon class="cls-2" points="292.72 331.57 292.72 340.25 286.78 336.44 292.72 331.57"/><path class="cls-6" d="M292.72,326l-36.08,2.85L220.57,326V343a12.52,12.52,0,0,1-.2,2.14A71.59,71.59,0,0,0,246,350.25c15.43,0,31.75-6,46.72-16.41Z"/><ellipse class="cls-2" cx="256" cy="216.85" rx="102.14" ry="123.39"/><path d="M309.72,201.51H291.45a3,3,0,0,1,0-6h18.27a3,3,0,0,1,0,6Z"/><path d="M220.59,201.51H202.32a3,3,0,0,1,0-6h18.27a3,3,0,1,1,0,6Z"/><circle cx="211.45" cy="228.22" r="11.37"/><circle class="cls-7" cx="206.31" cy="222.49" r="3.57"/><circle cx="300.59" cy="228.22" r="11.37"/><circle class="cls-7" cx="295.44" cy="222.49" r="3.57"/><path d="M153.86,223.54l8.66-3.84,7.61,3.84s-2-95,85.48-115.75l-39-14.33s-48.15,14.39-62.8,70.66C145.68,195.6,153.86,223.54,153.86,223.54Z"/><path d="M358.26,223.54l-9.09-3.87L342,223.54s2-95-85.48-115.75l39-14.33s48.15,14.39,62.79,70.66C366.45,195.6,358.26,223.54,358.26,223.54Z"/><path class="cls-2" d="M339.53,263.89s4.36,2.75,7,3.24c10.36,1.93,20.75-7.14,23.21-20.28s-4-25.36-14.33-27.29a28.2,28.2,0,0,0-6.2.11Z"/><path class="cls-2" d="M169.08,265.78a28.94,28.94,0,0,1-4,1.35c-10.36,1.93-20.76-7.14-23.21-20.28s4-25.36,14.33-27.29a28.27,28.27,0,0,1,6.35.14Z"/><path d="M172,150.64a124.52,124.52,0,0,0,174.52-32.17C326.11,89,285.91,76.68,232.34,83.9,204,104.23,182.14,129.36,172,150.64Z"/><path class="cls-8" d="M342.16,252.65H169.72v26.11c19.8,36.77,54.88,61.49,86.28,61.49s66.35-24.63,86.16-61.27Z"/><path class="cls-9" d="M169.72,278.76l.18.33c23.95,5.43,53.67,8.65,85.86,8.65,32.44,0,62.36-3.27,86.4-8.77V252.65H169.72Z"/><path class="cls-9" d="M342.17,262.15a3.25,3.25,0,0,1-.44,0,2.5,2.5,0,0,1-2-2.9l7-40a2.5,2.5,0,0,1,4.93.86l-7,40A2.5,2.5,0,0,1,342.17,262.15Z"/><path class="cls-9" d="M169.72,262.15a2.5,2.5,0,0,1-2.46-2l-7.2-40a2.5,2.5,0,1,1,4.92-.89l7.2,39.95a2.5,2.5,0,0,1-2,2.9A2.25,2.25,0,0,1,169.72,262.15Z"/></svg>